<svg width="200" height="240" viewBox="0 0 200 240" fill="none" xmlns="http://www.w3.org/2000/svg">
<g opacity="0.3">
<path opacity="0.3" d="M139.67 49.24C134.203 49.2347 128.961 47.0606 125.095 43.1947C121.23 39.3288 119.055 34.0871 119.05 28.62V0H26.9102C19.7732 0 12.9284 2.83517 7.88184 7.88177C2.83523 12.9284 0 19.773 0 26.91V189.13C0.0105984 196.26 2.85054 203.094 7.896 208.132C12.9415 213.17 19.7801 216 26.9102 216H137.51C141.044 216.001 144.544 215.306 147.81 213.954C151.075 212.602 154.042 210.62 156.541 208.121C159.04 205.622 161.022 202.655 162.374 199.39C163.726 196.124 164.421 192.624 164.42 189.09V49.24H139.67Z" fill="#828282"/>
</g>
<path d="M164.42 49.24H139.67C134.203 49.2347 128.961 47.0606 125.095 43.1947C121.23 39.3288 119.055 34.0871 119.05 28.62V0L164.42 49.24Z" fill="#5B5B5B"/>
<path d="M183.94 170.6H58.9001C50.0305 170.6 42.8401 177.79 42.8401 186.66V223.94C42.8401 232.81 50.0305 240 58.9001 240H183.94C192.81 240 200 232.81 200 223.94V186.66C200 177.79 192.81 170.6 183.94 170.6Z" fill="#5B5B5B"/>
<path d="M56.52 213.651V220.921H49V213.651H56.52Z" fill="white"/>
<path d="M83.3831 192.001C85.6711 193.3 87.562 195.198 88.8531 197.491C90.2059 199.912 90.8958 202.647 90.8531 205.421C90.9049 208.217 90.2148 210.978 88.8531 213.421C87.5576 215.719 85.6594 217.621 83.3631 218.921C81.0254 220.256 78.3751 220.946 75.6832 220.921C72.9916 220.943 70.342 220.253 68.0032 218.921C65.7096 217.621 63.8148 215.719 62.5232 213.421C61.157 210.979 60.4666 208.218 60.5232 205.421C60.4714 202.646 61.1619 199.909 62.5232 197.491C63.8211 195.2 65.7146 193.303 68.0032 192.001C70.342 190.668 72.9916 189.978 75.6832 190.001C78.3814 189.975 81.0382 190.665 83.3831 192.001ZM69.9832 199.111C68.5033 200.869 67.7518 203.126 67.8831 205.421C67.7625 207.71 68.5128 209.961 69.9832 211.721C70.7018 212.502 71.5825 213.116 72.5638 213.52C73.545 213.924 74.603 214.109 75.6631 214.061C76.72 214.106 77.7739 213.92 78.7515 213.516C79.7291 213.112 80.6067 212.499 81.323 211.721C82.8113 209.97 83.5735 207.716 83.4532 205.421C83.5704 203.133 82.8164 200.885 81.3431 199.131C80.6249 198.349 79.7441 197.735 78.7627 197.33C77.7814 196.926 76.7234 196.742 75.6631 196.791C74.6047 196.741 73.5481 196.923 72.5672 197.324C71.5862 197.725 70.7045 198.334 69.9832 199.111Z" fill="white"/>
<path d="M116.376 190.426V196.206H108.216V220.496H100.936V196.206H92.8557V190.426H116.376Z" fill="white"/>
<path d="M144.366 190.426V220.496H137.046V207.946H125.646V220.496H118.376V190.426H125.646V202.076H137.046V190.426H144.366Z" fill="white"/>
<path d="M153.646 196.216V202.506H163.806V207.996H153.646V214.676H165.086V220.496H146.366V190.426H165.086V196.216H153.646Z" fill="white"/>
<path d="M182.526 220.498L176.016 209.138H174.356V220.498H167.086V190.428H179.506C181.574 190.372 183.627 190.793 185.506 191.658C187.048 192.392 188.336 193.568 189.206 195.038C190.043 196.541 190.467 198.238 190.436 199.958C190.494 201.968 189.855 203.937 188.626 205.528C187.287 207.145 185.434 208.253 183.376 208.668L190.526 220.498H182.526ZM174.356 204.168H178.866C180.018 204.253 181.158 203.895 182.056 203.168C182.411 202.792 182.683 202.347 182.856 201.859C183.028 201.372 183.096 200.854 183.056 200.338C183.089 199.826 183.017 199.313 182.845 198.83C182.674 198.347 182.405 197.904 182.056 197.528C181.172 196.791 180.033 196.432 178.886 196.528H174.376L174.356 204.168Z" fill="white"/>
<path d="M71.3182 121.273V119.568C71.3182 115.662 71.6259 112.549 72.2415 110.229C72.857 107.909 73.7685 106.05 74.9759 104.653C76.1832 103.233 77.6629 101.955 79.4148 100.818C80.9299 99.8239 82.2794 98.8651 83.4631 97.9418C84.6705 97.0185 85.6174 96.036 86.304 94.9943C87.0142 93.9527 87.3693 92.7689 87.3693 91.4432C87.3693 90.2595 87.0852 89.2178 86.517 88.3182C85.9489 87.4186 85.1795 86.7202 84.2088 86.223C83.2382 85.7259 82.161 85.4773 80.9773 85.4773C79.6989 85.4773 78.5152 85.7732 77.4261 86.3651C76.3608 86.9569 75.4967 87.7737 74.8338 88.8153C74.1946 89.857 73.875 91.0644 73.875 92.4375H55.6932C55.7405 87.2292 56.9242 83.0033 59.2443 79.7599C61.5644 76.4929 64.642 74.1018 68.4773 72.5866C72.3125 71.0478 76.5265 70.2784 81.1193 70.2784C86.1856 70.2784 90.7074 71.0241 94.6847 72.5156C98.6619 73.9834 101.799 76.2088 104.095 79.1918C106.392 82.151 107.54 85.8561 107.54 90.3068C107.54 93.1714 107.043 95.6927 106.048 97.8707C105.078 100.025 103.716 101.931 101.964 103.588C100.236 105.222 98.2121 106.713 95.892 108.062C94.1875 109.057 92.7552 110.087 91.5952 111.152C90.4351 112.194 89.5592 113.389 88.9673 114.739C88.3755 116.064 88.0795 117.674 88.0795 119.568V121.273H71.3182ZM79.983 145.136C77.2367 145.136 74.8812 144.178 72.9162 142.26C70.9749 140.319 70.0161 137.963 70.0398 135.193C70.0161 132.494 70.9749 130.186 72.9162 128.268C74.8812 126.351 77.2367 125.392 79.983 125.392C82.5871 125.392 84.8835 126.351 86.8722 128.268C88.8845 130.186 89.9025 132.494 89.9261 135.193C89.9025 137.04 89.4171 138.721 88.4702 140.236C87.5469 141.727 86.3395 142.923 84.848 143.822C83.3565 144.698 81.7348 145.136 79.983 145.136Z" fill="#5B5B5B"/>
</svg>
